<?xml version="1.0" encoding="utf-8"?>
<!-- Generator: Adobe Illustrator 16.0.0, SVG Export Plug-In . SVG Version: 6.00 Build 0)  -->
<!DOCTYPE svg PUBLIC "-//W3C//DTD SVG 1.1//EN" "http://www.w3.org/Graphics/SVG/1.1/DTD/svg11.dtd">
<svg version="1.1" id="Capa_1" xmlns="http://www.w3.org/2000/svg" xmlns:xlink="http://www.w3.org/1999/xlink" x="0px" y="0px"
	 width="310.5px" height="232.875px" viewBox="0 0 310.5 232.875" enable-background="new 0 0 310.5 232.875" xml:space="preserve">
<path fill="#FFFFFF" d="M290.025,72.598c-1.402-0.229-11.747,35.794-14.086,35.794c-2.337,0,1.737-14.361-0.786-15.576
	c-2.117-1.023-8.261,10.337-10.625,8.715c-1.746-1.198-20.04-19.126-23.075-24.494c-3.04-5.369,1.163-6.07,3.267-5.84
	c2.104,0.241,10.737,1.395,11.208-11.671c0.466-7.947-2.337-5.372-5.604-3.742c-3.268,1.632-14.009,11.214-15.877,10.512
	c-1.869-0.704-14.946-35.739-31.758-36.899c-16.819-1.173-35.733,10.74-46.945,16.345c-11.203,5.604-53.479-6.075-74.025-5.375
	c-20.55,0.703-46.024,27.595-39.129,62.604c0,0-8.866,24.89-22.591,35.748c6.889,5.788,24.653-27.158,27.169-26.591
	c2.518,0.573,7.719,18.582,14.871,23.447c2.647,2.004-8.921,12.486,0,28.034c1.719,4.565,2.001,5.71,0,6.567
	c-1.999,0.863-5.719,8.014-1.719,8.014c4.009,0,39.474,0,39.474,0c2.71,0.203,4.807-7.74-7.335-9.138
	c-3.5-0.471-4.901-6.07-6.771-10.274c-1.868-4.205-0.938-9.345,3.502-11.676c4.437-2.334,12.352,10.279,19.121,18.458
	c-1.402,4.898-5.604,12.659,0,12.636c5.604-0.037,33.628,0,33.628,0s3.495-1.898,1.167-4.938c-2.336-3.032-11.204-3.503-12.846-8.64
	c-1.636-5.133-8.608-12.609-5.342-19.379c3.272-6.779,5.111-11.372,8.645-11.448c3.573-0.076,14.004-0.24,16.34-0.471
	c2.341-0.225,4.446-1.167,4.909,3.971c0.464,5.139,2.57,17.749,7.006,24.987c1.397,4.909,0.005,6.303-1.869,8.875
	c-1.873,2.57-4.901,7.067,0.7,7.044c5.608-0.037,35.029,0,35.029,0s4.201-4.938,0-7.747c-4.202-2.792-9.571-3.733-9.806-9.575
	c-0.231-5.834,3.5-15.781,4.901-13.688c1.404,2.105,1.38,13.771,6.752,16.099c5.376,2.337,6.505,7.867,6.505,10.672
	c0,2.796-0.7,4.496,4.901,4.239c5.606-0.276,29.893,0.023,29.893,0.023s3.967-3.564,0-6.369
	c-3.977-2.799-12.144-5.837-14.481-10.504c-2.335-4.669-18.627-28.722-14.417-30.128c4.201-1.397,7.968,7.241,26.519,6.543
	c5.239,0.463,18.32,4.899,23.688,10.273c5.366,5.372,14.012,6.77,19.38-0.94c5.368-7.696,14.71-30.595,14.479-52.774
	C293.76,72.135,291.428,72.839,290.025,72.598z"/>
</svg>
