<?xml version="1.0" encoding="utf-8"?>
<!-- Generator: Adobe Illustrator 16.0.0, SVG Export Plug-In . SVG Version: 6.00 Build 0)  -->
<!DOCTYPE svg PUBLIC "-//W3C//DTD SVG 1.1//EN" "http://www.w3.org/Graphics/SVG/1.1/DTD/svg11.dtd">
<svg version="1.1" id="Capa_1" xmlns="http://www.w3.org/2000/svg" xmlns:xlink="http://www.w3.org/1999/xlink" x="0px" y="0px"
	 width="201px" height="201px" viewBox="0 0 201 201" enable-background="new 0 0 201 201" xml:space="preserve">
<g>
	<g id="Layer_1_78_">
		<g>
			<path fill="#FFFFFF" d="M186.135,177.271H8.867c-4.898,0-8.867,3.964-8.867,8.868c0,4.893,3.968,8.86,8.867,8.86h177.26
				c4.896,0,8.868-3.968,8.868-8.86C194.986,181.235,191.022,177.271,186.135,177.271z"/>
			<path fill="#FFFFFF" d="M19.944,154.22c-4.898,0-8.866,3.973-8.866,8.873c0,4.896,3.968,8.868,8.866,8.868h155.101
				c4.904,0,8.868-3.972,8.868-8.868c0-4.9-3.964-8.873-8.868-8.873h-2.205V74.445h2.205c2.456,0,4.434-1.983,4.434-4.428
				s-1.985-4.428-4.434-4.428H19.944c-2.45,0-4.43,1.983-4.43,4.428s1.984,4.428,4.43,4.428h2.215v79.774H19.944L19.944,154.22z
				 M155.106,74.445v79.774h-26.589V74.445H155.106z M110.784,74.445v79.774H84.199V74.445H110.784z M39.883,74.445h26.589v79.774
				H39.883V74.445z"/>
			<path fill="#FFFFFF" d="M8.867,57.621h177.26c0.032,0,0.064,0,0.089,0c4.896,0,8.86-3.969,8.86-8.867
				c0-3.893-2.505-7.192-5.982-8.388L101.142,0.79c-2.313-1.038-4.957-1.038-7.268,0L5.229,40.674
				c-3.814,1.719-5.91,5.861-5.03,9.945C1.075,54.702,4.686,57.621,8.867,57.621z"/>
		</g>
	</g>
</g>
</svg>
