<?xml version="1.0" encoding="utf-8"?>
<!-- Generator: Adobe Illustrator 16.0.0, SVG Export Plug-In . SVG Version: 6.00 Build 0)  -->
<!DOCTYPE svg PUBLIC "-//W3C//DTD SVG 1.1//EN" "http://www.w3.org/Graphics/SVG/1.1/DTD/svg11.dtd">
<svg version="1.1" id="Capa_1" xmlns="http://www.w3.org/2000/svg" xmlns:xlink="http://www.w3.org/1999/xlink" x="0px" y="0px"
	 width="1024px" height="768px" viewBox="0 0 1024 768" enable-background="new 0 0 1024 768" xml:space="preserve">
<g>
	<path d="M335.182,237.737c34.719-10.911,53.986-47.868,43.087-82.576c-8.849-28.117-34.844-46.109-62.835-46.109
		c-6.524,0-13.174,0.985-19.748,3.049c-34.697,10.908-53.962,47.892-43.041,82.585c8.798,28.118,34.771,46.111,62.735,46.111
		C321.933,240.796,328.607,239.809,335.182,237.737z"/>
	<path d="M371.04,245.765c0,0-62.345,19.979-63.274,20.314c-23.446,8.474-40.485,28.447-44.474,53.256l-23.188,143.945
		c-2.831,17.65,9.18,34.264,26.803,37.096c1.744,0.292,3.489,0.417,5.209,0.417c15.601,0,29.333-11.315,31.911-27.222l4.759-29.545
		l5.7,53.779l5.827,54.95c0.481,4.452,2.908,8.46,6.649,10.913c3.742,2.45,8.395,3.097,12.671,1.758l20.619-6.484l19.549,62.127
		H279.753c-2.806,0-5.107-2.288-5.107-5.108v-95.962c-0.843,0.041-1.655,0.228-2.504,0.228c-2.756,0-5.514-0.228-8.32-0.671
		c-19.985-3.225-35.253-17.576-40.966-35.656v132.063c0,31.369,25.514,56.896,56.894,56.896h107.091v-29.411v-92.869V308.652
		v-65.546c-4.194,0.306-8.387,1.016-12.558,2.112C373.21,245.501,372.112,245.428,371.04,245.765z"/>
	<path d="M658.306,0.167H300.54h-20.787c-31.422,0-56.894,25.474-56.894,56.896v391.205l21.266-132.015
		c3.445-21.471,14.505-40.205,30.52-53.529v-5.622c-21.853-10.815-39.017-30.115-46.705-54.641
		c-7.358-23.378-5.158-48.222,6.145-69.956c9.075-17.411,23.295-30.904,40.56-39.465V57.062c0-2.81,2.3-5.108,5.107-5.108h20.787
		h98.821H531.39l-93.745,18.749c-14.489,2.896-24.906,15.614-24.906,30.395v635.9c0,9.29,4.171,18.092,11.353,23.969
		c7.183,5.895,16.614,8.258,25.715,6.426l326.428-65.278c14.493-2.895,24.908-15.614,24.908-30.394V25.073
		c0-13.861-11.248-25.093-25.108-25.073L658.306,0.167z M478.076,457.086c-14.009,0-25.363-11.356-25.363-25.352
		c0-14.009,11.354-25.361,25.363-25.361c14.012,0,25.363,11.353,25.363,25.361C503.439,445.73,492.09,457.086,478.076,457.086z
		 M676.632,194.583c0,7.345-5.187,13.666-12.417,15.096l-99.935,19.802c-4.528,0.895-9.203-0.28-12.768-3.215
		c-3.54-2.921-5.614-7.281-5.614-11.896v-26.804c0-7.345,5.185-13.667,12.416-15.096l99.932-19.802
		c4.53-0.896,9.205,0.279,12.77,3.214c3.54,2.921,5.616,7.281,5.616,11.896V194.583L676.632,194.583z"/>
</g>
</svg>
