<?xml version="1.0" encoding="utf-8"?>
<!-- Generator: Adobe Illustrator 16.0.0, SVG Export Plug-In . SVG Version: 6.00 Build 0)  -->
<!DOCTYPE svg PUBLIC "-//W3C//DTD SVG 1.1//EN" "http://www.w3.org/Graphics/SVG/1.1/DTD/svg11.dtd">
<svg version="1.1" id="Capa_1" xmlns="http://www.w3.org/2000/svg" xmlns:xlink="http://www.w3.org/1999/xlink" x="0px" y="0px"
	 width="168.493px" height="168.493px" viewBox="0 0 168.493 168.493" enable-background="new 0 0 168.493 168.493"
	 xml:space="preserve">
<g>
	<path fill="#FFFFFF" d="M162.997,29.764c-0.293-0.744-0.971-1.267-1.766-1.365c-0.792-0.097-1.577,0.249-2.042,0.899
		c-2.758,3.868-6.377,5.157-10.571,6.649c-3.381,1.204-6.876,2.448-10.655,5.162c-5.344,3.836-7.788,9.065-6.57,14.022l-0.13,0.167
		c-2.231-3.237-4.66-6.231-7.222-8.905c-11.987-12.508-28.737-20.028-45.957-20.63c-0.758-0.026-1.529-0.04-2.291-0.04
		c-19.228,0-37.631,8.595-50.492,23.581C12.51,64.214,6.839,83.621,9.746,102.551c0.243,1.583,0.547,3.181,0.905,4.753
		c4.728,20.813,16.805,36.645,33.134,43.436c4.025,1.675,8.085,2.523,12.066,2.523c9.89,0,18.529-5.29,23.702-14.514
		c1.966-3.51,3.235-7.138,3.769-10.788c0.315-2.154,0.1-4.306-0.109-6.392c-0.215-2.146-0.418-4.175-0.093-6.218
		c0.745-4.682,4.015-7.478,8.75-7.478c1.347,0,2.722,0.221,4.097,0.659c-1.609,2.951-3.07,5.769-4.347,8.38
		c-2.706,5.535-4.572,10.119-5.548,13.622c-0.603,2.16-2.202,7.903,1.698,10.611c1.239,0.859,2.81,1.163,4.444,0.859
		c1.473-0.274,5.956-1.106,18.694-15.607c3.418-3.891,7.103-8.395,10.953-13.387c9.885-3.329,17.578-11.614,19.612-21.134
		c0.509-2.38,0.722-4.927,0.631-7.572c3.701-5.72,6.947-11.057,10.213-16.793c0.063-0.111,0.125-0.229,0.186-0.349
		c4.741-1.299,8.825-4.988,11.222-10.148C167.223,49.484,166.965,39.806,162.997,29.764z M109.56,65.422
		c-1.714,2.723-4.662,4.349-7.886,4.349c-1.75,0-3.461-0.495-4.95-1.433c-2.104-1.325-3.566-3.39-4.117-5.814
		s-0.125-4.918,1.2-7.022c1.716-2.723,4.663-4.35,7.887-4.35c1.75,0,3.462,0.496,4.95,1.433c2.104,1.324,3.567,3.389,4.117,5.813
		C111.31,60.824,110.884,63.318,109.56,65.422z M121.642,82.287c4.706-6.934,9.682-13.826,14.409-19.957
		c0.766,0.692,1.624,1.368,2.551,2.012c1.539,1.067,3.146,1.892,4.79,2.457c-3.991,6.825-8.282,13.587-13.478,21.239
		c-8.537,12.578-17.413,24.263-24.994,32.9c-4.234,4.824-7.939,8.549-10.795,10.856c1.102-3.526,3.208-8.365,6.14-14.098
		C105.506,107.446,113.098,94.87,121.642,82.287z M39.019,82.227c-1.75,0-3.462-0.495-4.951-1.433
		c-2.104-1.325-3.566-3.389-4.117-5.814c-0.551-2.424-0.124-4.919,1.201-7.022c1.714-2.723,4.662-4.349,7.885-4.349
		c1.751,0,3.463,0.495,4.951,1.433c4.343,2.735,5.651,8.494,2.918,12.835C45.189,80.601,42.241,82.227,39.019,82.227z
		 M29.261,102.724c1.715-2.724,4.663-4.35,7.886-4.35c1.75,0,3.461,0.496,4.95,1.433c2.104,1.325,3.566,3.389,4.117,5.814
		c0.551,2.424,0.125,4.917-1.201,7.022c-1.714,2.723-4.662,4.349-7.885,4.349c-1.75,0-3.463-0.495-4.951-1.433
		c-2.104-1.325-3.566-3.389-4.116-5.814C27.511,107.322,27.938,104.828,29.261,102.724z M59.072,47.441
		c1.714-2.723,4.662-4.35,7.885-4.35c1.75,0,3.461,0.495,4.95,1.433c4.343,2.735,5.651,8.494,2.917,12.836
		c-1.715,2.724-4.663,4.35-7.886,4.35c-1.75,0-3.462-0.495-4.95-1.433c-2.104-1.325-3.565-3.389-4.116-5.814
		C57.32,52.039,57.747,49.546,59.072,47.441z"/>
</g>
</svg>
